<?xml version="1.0" encoding="utf-8"?>
<!-- Generator: Adobe Illustrator 16.0.4, SVG Export Plug-In . SVG Version: 6.00 Build 0)  -->
<!DOCTYPE svg PUBLIC "-//W3C//DTD SVG 1.1//EN" "http://www.w3.org/Graphics/SVG/1.1/DTD/svg11.dtd">
<svg version="1.1" id="Layer_1" xmlns="http://www.w3.org/2000/svg" xmlns:xlink="http://www.w3.org/1999/xlink" x="0px" y="0px"
	 width="32px" height="32px" viewBox="0 0 32 32" enable-background="new 0 0 32 32" xml:space="preserve">
<g>
	<path d="M16,30.918C7.775,30.918,1.083,24.226,1.083,16C1.083,7.775,7.775,1.083,16,1.083c8.225,0,14.916,6.691,14.916,14.917
		C30.916,24.226,24.225,30.918,16,30.918z M16,8.11c-4.351,0-7.891,3.54-7.891,7.89c0,4.352,3.54,7.893,7.891,7.893
		c4.351,0,7.891-3.541,7.891-7.893C23.891,11.649,20.351,8.11,16,8.11z"/>
	<path fill="#FFFFFF" d="M16,2.083c7.673,0,13.916,6.243,13.916,13.917c0,7.674-6.243,13.918-13.916,13.918
		C8.326,29.918,2.083,23.674,2.083,16C2.083,8.327,8.326,2.083,16,2.083 M16,24.893c4.902,0,8.891-3.989,8.891-8.893
		c0-4.902-3.988-8.89-8.891-8.89S7.109,11.098,7.109,16C7.109,20.903,11.098,24.893,16,24.893 M16,0.083
		C7.223,0.083,0.083,7.224,0.083,16c0,8.777,7.14,15.918,15.917,15.918c8.776,0,15.916-7.141,15.916-15.918
		C31.916,7.224,24.776,0.083,16,0.083L16,0.083z M16,22.893c-3.8,0-6.891-3.092-6.891-6.893c0-3.799,3.091-6.89,6.891-6.89
		s6.891,3.091,6.891,6.89C22.891,19.801,19.8,22.893,16,22.893L16,22.893z"/>
</g>
</svg>
